; NON-PLATED HOLES START AT T1
; THROUGH (PLATED) HOLES START AT T100
M48
INCH
T1C0.049194
T2C0.125984
T100C0.015748
T101C0.038000
T102C0.031833
T103C0.035000
T104C0.038779
T105C0.030000
%
T1
X017947Y022594
T2
X022535Y019720
X013670Y022604
X031643Y002481
T100
X016433Y024593
X019073Y001073
X000833Y007553
X021713Y014033
X002033Y002033
X023153Y004193
X007793Y020753
X021473Y008993
X032753Y002993
X011393Y022673
T101
X020071Y003566
X010071Y025566
X034071Y003566
X009071Y025566
X010071Y021566
X020071Y001566
X023071Y010566
X030071Y025566
X024071Y002566
X024071Y001566
X022071Y002566
X022071Y001566
X016071Y001566
X020071Y002566
X002071Y025566
X013071Y001566
X030071Y022566
X031071Y023566
X034071Y001566
X034071Y007566
X003071Y025566
X004071Y022566
X002071Y022566
X023071Y009566
X011071Y025566
X034071Y023566
X013071Y025566
X015071Y025566
X014071Y025566
X034071Y017566
X034071Y025566
X034071Y013566
X006071Y001566
X022071Y003566
X034071Y006566
X030071Y023566
X034071Y011566
X030071Y024566
X024071Y009566
X034071Y002566
X024071Y008566
X034071Y010566
X031071Y025566
X031071Y022566
X010071Y022566
X023071Y008566
X034071Y019566
X034071Y012566
X004071Y025566
X012071Y025566
X034071Y024566
X001071Y001566
X003071Y001566
X007071Y001566
X017071Y001566
X014071Y001566
X003071Y022566
X015071Y001566
X024071Y003566
X002071Y001566
X034071Y020566
X034071Y016566
X031071Y024566
X010071Y020566
X034071Y026566
X034071Y018566
X008071Y001566
X024071Y010566
T102
X017947Y025594
X028072Y022566
X017947Y023594
X017947Y024594
X028072Y024566
X028072Y026566
X028072Y021566
X028072Y023566
X028072Y025566
T103
X008071Y005566
X025071Y017566
X004071Y005566
X027071Y014566
X029071Y014566
X023071Y014566
X011071Y004566
X006071Y022566
X019071Y002566
X025071Y014566
X023071Y002566
X024071Y017566
X023071Y017566
X011071Y005566
X021071Y006566
X019071Y005566
X026071Y017566
X006071Y004566
X029071Y017566
X023071Y005566
X024071Y014566
X027071Y017566
X010071Y002566
X015071Y004566
X010071Y006566
X026071Y014566
X028071Y014566
X015071Y005566
X030071Y017566
X028071Y017566
X016071Y006566
X030071Y014566
X006071Y018566
X002071Y004566
T104
X017069Y007710
X002076Y007710
X020070Y007710
X007074Y007710
X002076Y017566
X010074Y017566
X018063Y007710
X012071Y017566
X005077Y007710
X003079Y007710
X003079Y017566
X014069Y017566
X004073Y007710
X019066Y007710
X011068Y007710
X006070Y007710
X009071Y017566
X016066Y007710
X013075Y017566
X008077Y017566
X008077Y007710
X014069Y007710
X012071Y007710
X010074Y007710
X018063Y017566
X019066Y017566
X006070Y017566
X020070Y017566
X015072Y007710
X004073Y017566
X017069Y017566
X007074Y017566
X009071Y007710
X013075Y007710
X005077Y017566
X016066Y017566
X015072Y017566
X011068Y017566
T105
X026071Y007566
X014071Y020566
X026071Y003566
X029071Y001566
X026071Y005566
X007071Y004566
X002071Y006568
X026071Y010566
X026071Y008566
X002071Y005566
X031071Y016568
X026071Y012566
X031071Y015566
X016071Y020566
X004071Y020175
X026071Y001566
X029071Y007566
X002071Y020175
X031071Y007566
X026071Y011566
X026071Y009566
X008073Y004566
X031071Y009566
X031071Y008566
X031071Y012566
X031071Y005566
X031071Y010566
X031071Y006566
X031071Y011566
X028070Y007566
X029071Y003566
X026071Y006566
T00
M30
